<svg xmlns="http://www.w3.org/2000/svg" xmlns:xlink="http://www.w3.org/1999/xlink" viewBox="0 0 2560 1440"><defs><style>.cls-1{fill:#231f20;}.cls-1,.cls-36,.cls-6{mix-blend-mode:hard-light;}.cls-1,.cls-36{opacity:0.8;}.cls-2{fill:#f9f2f2;}.cls-3{isolation:isolate;}.cls-4{fill:#06062b;}.cls-24,.cls-35,.cls-43,.cls-5,.cls-7{mix-blend-mode:overlay;}.cls-5{fill:url(#radial-gradient);}.cls-6{opacity:0.55;fill:url(#linear-gradient);}.cls-7{fill:#ffafcb;opacity:0.5;}.cls-8{fill:url(#linear-gradient-2);}.cls-10,.cls-11,.cls-41,.cls-9{opacity:0.15;}.cls-9{fill:url(#linear-gradient-3);}.cls-10{fill:url(#linear-gradient-4);}.cls-11{fill:url(#linear-gradient-5);}.cls-12{fill:url(#linear-gradient-6);}.cls-13{fill:url(#linear-gradient-7);}.cls-14{fill:url(#linear-gradient-8);}.cls-15{fill:url(#linear-gradient-9);}.cls-100,.cls-101,.cls-102,.cls-103,.cls-104,.cls-105,.cls-16,.cls-17,.cls-39,.cls-45,.cls-46,.cls-47,.cls-48,.cls-49,.cls-50,.cls-51,.cls-52,.cls-53,.cls-54,.cls-55,.cls-56,.cls-57,.cls-58,.cls-59,.cls-60,.cls-61,.cls-62,.cls-63,.cls-64,.cls-65,.cls-66,.cls-67,.cls-68,.cls-69,.cls-70,.cls-71,.cls-72,.cls-73,.cls-74,.cls-75,.cls-76,.cls-77,.cls-78,.cls-79,.cls-80,.cls-81,.cls-82,.cls-83,.cls-84,.cls-85,.cls-86,.cls-87,.cls-88,.cls-89,.cls-90,.cls-91,.cls-92,.cls-93,.cls-94,.cls-95,.cls-96,.cls-97,.cls-98,.cls-99{mix-blend-mode:screen;}.cls-16{fill:url(#linear-gradient-10);}.cls-17{fill:url(#linear-gradient-11);}.cls-18{fill:url(#linear-gradient-12);}.cls-19{fill:url(#linear-gradient-13);}.cls-20{fill:url(#linear-gradient-14);}.cls-21{fill:url(#linear-gradient-15);}.cls-22{fill:url(#linear-gradient-16);}.cls-23{fill:url(#linear-gradient-17);}.cls-24{fill:#8cf4ff;}.cls-25{fill:url(#linear-gradient-18);}.cls-26,.cls-42{stroke:#fff;stroke-miterlimit:10;}.cls-26{stroke-width:2px;fill:url(#linear-gradient-19);}.cls-27{fill:url(#linear-gradient-20);}.cls-28{fill:url(#linear-gradient-21);}.cls-29{fill:url(#linear-gradient-22);}.cls-30{fill:url(#linear-gradient-23);}.cls-31{fill:url(#linear-gradient-24);}.cls-32{fill:url(#linear-gradient-25);}.cls-33{fill:url(#linear-gradient-26);}.cls-34,.cls-38{mix-blend-mode:color-dodge;}.cls-34{fill:url(#linear-gradient-27);}.cls-35{fill:#fff;opacity:0.2;}.cls-36{fill:url(#linear-gradient-28);}.cls-37{mask:url(#mask);}.cls-38{fill:url(#linear-gradient-29);}.cls-39{fill:url(#linear-gradient-30);}.cls-40{mask:url(#mask-3);}.cls-41{mix-blend-mode:multiply;fill:url(#linear-gradient-31);}.cls-42{fill:none;stroke-linecap:round;stroke-width:20px;opacity:0.85;}.cls-43{opacity:0.4;fill:url(#linear-gradient-32);}.cls-44{opacity:0.25;}.cls-45{fill:url(#linear-gradient-33);}.cls-46{fill:url(#linear-gradient-34);}.cls-47{fill:url(#linear-gradient-35);}.cls-48{fill:url(#linear-gradient-36);}.cls-49{fill:url(#linear-gradient-37);}.cls-50{fill:url(#linear-gradient-38);}.cls-51{fill:url(#linear-gradient-39);}.cls-52{fill:url(#linear-gradient-40);}.cls-53{fill:url(#linear-gradient-41);}.cls-54{fill:url(#linear-gradient-42);}.cls-55{fill:url(#linear-gradient-43);}.cls-56{fill:url(#linear-gradient-44);}.cls-57{fill:url(#linear-gradient-45);}.cls-58{fill:url(#linear-gradient-46);}.cls-59{fill:url(#linear-gradient-47);}.cls-60{fill:url(#linear-gradient-48);}.cls-61{fill:url(#linear-gradient-49);}.cls-62{fill:url(#linear-gradient-50);}.cls-63{fill:url(#linear-gradient-51);}.cls-64{fill:url(#linear-gradient-52);}.cls-65{fill:url(#linear-gradient-53);}.cls-66{fill:url(#linear-gradient-54);}.cls-67{fill:url(#linear-gradient-55);}.cls-68{fill:url(#linear-gradient-56);}.cls-69{fill:url(#linear-gradient-57);}.cls-70{fill:url(#linear-gradient-58);}.cls-71{fill:url(#linear-gradient-59);}.cls-72{fill:url(#linear-gradient-60);}.cls-73{fill:url(#linear-gradient-61);}.cls-74{fill:url(#linear-gradient-62);}.cls-75{fill:url(#linear-gradient-63);}.cls-76{fill:url(#linear-gradient-64);}.cls-77{fill:url(#linear-gradient-65);}.cls-78{fill:url(#linear-gradient-66);}.cls-79{fill:url(#linear-gradient-67);}.cls-80{fill:url(#linear-gradient-68);}.cls-81{fill:url(#linear-gradient-69);}.cls-82{fill:url(#linear-gradient-70);}.cls-83{fill:url(#linear-gradient-71);}.cls-84{fill:url(#linear-gradient-72);}.cls-85{fill:url(#linear-gradient-73);}.cls-86{fill:url(#linear-gradient-74);}.cls-87{fill:url(#linear-gradient-75);}.cls-88{fill:url(#linear-gradient-76);}.cls-89{fill:url(#linear-gradient-77);}.cls-90{fill:url(#linear-gradient-78);}.cls-91{fill:url(#linear-gradient-79);}.cls-92{fill:url(#linear-gradient-80);}.cls-93{fill:url(#linear-gradient-81);}.cls-94{fill:url(#linear-gradient-82);}.cls-95{fill:url(#linear-gradient-83);}.cls-96{fill:url(#linear-gradient-84);}.cls-97{fill:url(#linear-gradient-85);}.cls-98{fill:url(#linear-gradient-86);}.cls-99{fill:url(#linear-gradient-87);}.cls-100{fill:url(#linear-gradient-88);}.cls-101{fill:url(#linear-gradient-89);}.cls-102{fill:url(#linear-gradient-90);}.cls-103{fill:url(#linear-gradient-91);}.cls-104{fill:url(#linear-gradient-92);}.cls-105{fill:url(#linear-gradient-93);}.cls-106{filter:url(#luminosity-noclip);}</style><radialGradient id="radial-gradient" cx="1280" cy="720" r="720" gradientUnits="userSpaceOnUse"><stop offset="0" stop-color="#fff"/><stop offset="1" stop-color="#fff" stop-opacity="0"/></radialGradient><linearGradient id="linear-gradient" x1="1485.06" y1="925.06" x2="1074.94" y2="514.94" gradientUnits="userSpaceOnUse"><stop offset="0" stop-color="#ffafcb" stop-opacity="0"/><stop offset="1" stop-color="#e678ff"/></linearGradient><linearGradient id="linear-gradient-2" x1="1163.02" y1="516.06" x2="1163.02" y2="516.06" gradientUnits="userSpaceOnUse"><stop offset="0" stop-color="#231f20"/><stop offset="0" stop-color="#5fbaa0"/><stop offset="1" stop-color="#f6ee1e" stop-opacity="0"/></linearGradient><linearGradient id="linear-gradient-3" x1="848.14" y1="466" x2="848.14" y2="314" gradientUnits="userSpaceOnUse"><stop offset="0" stop-color="#f6ee1e"/><stop offset="1" stop-color="#5fbaa0"/><stop offset="1" stop-color="#231f20"/></linearGradient><linearGradient id="linear-gradient-4" x1="848.14" y1="454" x2="848.14" y2="326" xlink:href="#linear-gradient-3"/><linearGradient id="linear-gradient-5" x1="848.14" y1="442" x2="848.14" y2="338" xlink:href="#linear-gradient-3"/><linearGradient id="linear-gradient-6" x1="848.14" y1="350" x2="848.14" y2="430" xlink:href="#linear-gradient-3"/><linearGradient id="linear-gradient-7" x1="1749.83" y1="1059" x2="1749.83" y2="961" gradientUnits="userSpaceOnUse"><stop offset="0" stop-color="#cd4557"/><stop offset="1" stop-color="#e3b019" stop-opacity="0.15"/></linearGradient><linearGradient id="linear-gradient-8" x1="1749.83" y1="1047" x2="1749.83" y2="973" xlink:href="#linear-gradient-7"/><linearGradient id="linear-gradient-9" x1="1749.83" y1="1035" x2="1749.83" y2="985" gradientUnits="userSpaceOnUse"><stop offset="0" stop-color="#cd4557"/><stop offset="1" stop-color="#e3b019"/></linearGradient><linearGradient id="linear-gradient-10" x1="1712.83" y1="434" x2="1712.83" y2="474" gradientUnits="userSpaceOnUse"><stop offset="0" stop-color="#fff"/><stop offset="0" stop-color="#1f2ad5" stop-opacity="0"/><stop offset="1" stop-color="#c838e7"/></linearGradient><linearGradient id="linear-gradient-11" x1="848.14" y1="965" x2="848.14" y2="1005" xlink:href="#linear-gradient-10"/><linearGradient id="linear-gradient-12" x1="1371.75" y1="410" x2="1371.75" y2="390" xlink:href="#linear-gradient-2"/><linearGradient id="linear-gradient-13" x1="1374.51" y1="410" x2="1374.51" y2="390" xlink:href="#linear-gradient-2"/><linearGradient id="linear-gradient-14" x1="1269.29" y1="536.06" x2="1269.29" y2="516.06" xlink:href="#linear-gradient-2"/><linearGradient id="linear-gradient-15" x1="1245.18" y1="1096.69" x2="1245.18" y2="1076.69" xlink:href="#linear-gradient-2"/><linearGradient id="linear-gradient-16" x1="1059.17" y1="631.13" x2="1059.17" y2="611.13" xlink:href="#linear-gradient-2"/><linearGradient id="linear-gradient-17" x1="1361.75" y1="528.15" x2="1361.75" y2="508.15" xlink:href="#linear-gradient-2"/><linearGradient id="linear-gradient-18" x1="1296.32" y1="645.71" x2="1235.36" y2="991.44" gradientUnits="userSpaceOnUse"><stop offset="0" stop-color="#8cf4ff"/><stop offset="0.19" stop-color="#7cd7f7"/><stop offset="0.75" stop-color="#5387e3"/><stop offset="1" stop-color="#4268db"/></linearGradient><linearGradient id="linear-gradient-19" x1="1277.66" y1="772.57" x2="1277.66" y2="995" gradientUnits="userSpaceOnUse"><stop offset="0" stop-color="#e1deff"/><stop offset="0.07" stop-color="#e1bef1"/><stop offset="0.2" stop-color="#e08cdb"/><stop offset="0.33" stop-color="#df61c9"/><stop offset="0.46" stop-color="#df3eba"/><stop offset="0.59" stop-color="#de23ae"/><stop offset="0.72" stop-color="#de0fa6"/><stop offset="0.86" stop-color="#de04a1"/><stop offset="1" stop-color="#de009f"/><stop offset="1" stop-color="#231f20"/></linearGradient><linearGradient id="linear-gradient-20" x1="1025.37" y1="824.28" x2="1025.37" y2="824.16" xlink:href="#linear-gradient-2"/><linearGradient id="linear-gradient-21" x1="1005.23" y1="730.76" x2="1005.23" y2="730.76" xlink:href="#linear-gradient-2"/><linearGradient id="linear-gradient-22" x1="1005.55" y1="737.28" x2="1005.55" y2="737.22" xlink:href="#linear-gradient-2"/><linearGradient id="linear-gradient-23" x1="1006.02" y1="743.75" x2="1006.02" y2="743.69" xlink:href="#linear-gradient-2"/><linearGradient id="linear-gradient-24" x1="1006.64" y1="750.17" x2="1006.64" y2="750.14" xlink:href="#linear-gradient-2"/><linearGradient id="linear-gradient-25" x1="1015.99" y1="824.16" x2="1015.99" y2="750.17" xlink:href="#linear-gradient-2"/><linearGradient id="linear-gradient-26" x1="1108.82" y1="647.56" x2="1163.04" y2="765.26" gradientUnits="userSpaceOnUse"><stop offset="0" stop-color="#85e8fc"/><stop offset="0" stop-color="#86eafc"/><stop offset="0.04" stop-color="#8bf2fe"/><stop offset="0.09" stop-color="#8cf4ff"/><stop offset="0.21" stop-color="#87ebfd"/><stop offset="0.4" stop-color="#7bd4f7"/><stop offset="0.65" stop-color="#66aded"/><stop offset="0.92" stop-color="#4a78df"/><stop offset="1" stop-color="#4268db"/></linearGradient><linearGradient id="linear-gradient-27" x1="1606.72" y1="1002.05" x2="1447.62" y2="842.95" gradientUnits="userSpaceOnUse"><stop offset="0" stop-color="#fff"/><stop offset="0" stop-color="#1f2ad5"/><stop offset="1" stop-color="#c838e7"/></linearGradient><linearGradient id="linear-gradient-28" x1="1396.28" y1="969.37" x2="1163.72" y2="470.63" gradientUnits="userSpaceOnUse"><stop offset="0" stop-color="#eeff94"/><stop offset="0.02" stop-color="#ecff86" stop-opacity="0.84"/><stop offset="0.04" stop-color="#e9ff76" stop-opacity="0.66"/><stop offset="0.06" stop-color="#e7ff68" stop-opacity="0.5"/><stop offset="0.08" stop-color="#e5ff5c" stop-opacity="0.37"/><stop offset="0.11" stop-color="#e3ff52" stop-opacity="0.25"/><stop offset="0.14" stop-color="#e1ff49" stop-opacity="0.16"/><stop offset="0.17" stop-color="#e0ff43" stop-opacity="0.09"/><stop offset="0.21" stop-color="#e0ff3e" stop-opacity="0.04"/><stop offset="0.26" stop-color="#dfff3c" stop-opacity="0.01"/><stop offset="0.36" stop-color="#dfff3b" stop-opacity="0"/></linearGradient><filter id="luminosity-noclip" x="844.41" y="407.67" width="871.19" height="633.7" filterUnits="userSpaceOnUse" color-interpolation-filters="sRGB"><feFlood flood-color="#fff" result="bg"/><feBlend in="SourceGraphic" in2="bg"/></filter><mask id="mask" x="844.41" y="407.67" width="871.19" height="633.7" maskUnits="userSpaceOnUse"><g class="cls-106"><g transform="translate(0 0)"><path class="cls-1" d="M1533.16,578.48C1483.53,489.89,1388.77,430,1280,430c-160.16,0-290,129.84-290,290a288.58,288.58,0,0,0,45.41,155.86Z"/></g></g></mask><linearGradient id="linear-gradient-29" x1="1362.3" y1="822.6" x2="1197.7" y2="626.44" gradientUnits="userSpaceOnUse"><stop offset="0" stop-color="#cb5180"/><stop offset="0.11" stop-color="#c5507e"/><stop offset="0.27" stop-color="#b34f79"/><stop offset="0.45" stop-color="#964d71"/><stop offset="0.65" stop-color="#6d4966"/><stop offset="0.86" stop-color="#394557"/><stop offset="0.9" stop-color="#2e4454"/></linearGradient><linearGradient id="linear-gradient-30" x1="1362.3" y1="822.6" x2="1197.7" y2="626.44" gradientUnits="userSpaceOnUse"><stop offset="0" stop-color="#cb5180"/><stop offset="0.13" stop-color="#b24770" stop-opacity="0.88"/><stop offset="0.42" stop-color="#722e48" stop-opacity="0.56"/><stop offset="0.82" stop-color="#0d0508" stop-opacity="0.06"/><stop offset="0.87" stop-opacity="0"/></linearGradient><mask id="mask-3" x="888.14" y="445" width="871.19" height="640.66" maskUnits="userSpaceOnUse"><g transform="translate(0 0)"><path id="LowYellow" class="cls-2" d="M1280,995a275,275,0,1,1,194.45-80.55A273.19,273.19,0,0,1,1280,995Z"/></g></mask><linearGradient id="linear-gradient-31" x1="1406.04" y1="866.89" x2="1241.44" y2="670.73" xlink:href="#linear-gradient-30"/><linearGradient id="linear-gradient-32" x1="1485.06" y1="925.06" x2="1074.94" y2="514.94" gradientUnits="userSpaceOnUse"><stop offset="0" stop-color="#fff"/><stop offset="0" stop-color="#fff" stop-opacity="0"/><stop offset="1" stop-color="#fff"/></linearGradient><linearGradient id="linear-gradient-33" x1="1163.02" y1="724.93" x2="1163.02" y2="704.93" xlink:href="#linear-gradient-2"/><linearGradient id="linear-gradient-34" x1="1130.43" y1="756.31" x2="1130.43" y2="736.31" xlink:href="#linear-gradient-2"/><linearGradient id="linear-gradient-35" x1="1367.18" y1="631.13" x2="1367.18" y2="600.21" xlink:href="#linear-gradient-2"/><linearGradient id="linear-gradient-36" x1="1033.08" y1="725.46" x2="1033.08" y2="694.54" xlink:href="#linear-gradient-2"/><linearGradient id="linear-gradient-37" x1="1235.07" y1="786.75" x2="1235.07" y2="766.75" xlink:href="#linear-gradient-2"/><linearGradient id="linear-gradient-38" x1="1109.72" y1="839.23" x2="1109.72" y2="819.23" xlink:href="#linear-gradient-2"/><linearGradient id="linear-gradient-39" x1="1342.36" y1="760.14" x2="1342.36" y2="740.14" xlink:href="#linear-gradient-2"/><linearGradient id="linear-gradient-40" x1="1371.75" y1="714.93" x2="1371.75" y2="694.93" xlink:href="#linear-gradient-2"/><linearGradient id="linear-gradient-41" x1="1414.67" y1="699.95" x2="1414.67" y2="679.95" xlink:href="#linear-gradient-2"/><linearGradient id="linear-gradient-42" x1="1498" y1="750.14" x2="1498" y2="730.14" xlink:href="#linear-gradient-2"/><linearGradient id="linear-gradient-43" x1="1523.46" y1="730" x2="1523.46" y2="710" gradientTransform="translate(89.61 -165.1) rotate(6.39)" xlink:href="#linear-gradient-2"/><linearGradient id="linear-gradient-44" x1="1442.28" y1="730" x2="1442.28" y2="710" xlink:href="#linear-gradient-2"/><linearGradient id="linear-gradient-45" x1="1384.51" y1="746.31" x2="1384.51" y2="726.31" xlink:href="#linear-gradient-2"/><linearGradient id="linear-gradient-46" x1="1434.67" y1="832.82" x2="1434.67" y2="812.82" xlink:href="#linear-gradient-2"/><linearGradient id="linear-gradient-47" x1="1307.12" y1="788.81" x2="1307.12" y2="768.81" xlink:href="#linear-gradient-2"/><linearGradient id="linear-gradient-48" x1="1374.51" y1="853.03" x2="1374.51" y2="833.03" xlink:href="#linear-gradient-2"/><linearGradient id="linear-gradient-49" x1="1079.17" y1="866.69" x2="1079.17" y2="846.69" xlink:href="#linear-gradient-2"/><linearGradient id="linear-gradient-50" x1="1114.63" y1="922.15" x2="1114.63" y2="902.15" xlink:href="#linear-gradient-2"/><linearGradient id="linear-gradient-51" x1="1184.31" y1="900.58" x2="1184.31" y2="880.58" gradientTransform="translate(106.49 -126.29) rotate(6.39)" xlink:href="#linear-gradient-2"/><linearGradient id="linear-gradient-52" x1="1304.2" y1="880.49" x2="1304.2" y2="860.49" xlink:href="#linear-gradient-2"/><linearGradient id="linear-gradient-53" x1="1498" y1="853.03" x2="1498" y2="833.03" xlink:href="#linear-gradient-2"/><linearGradient id="linear-gradient-54" x1="1428.85" y1="900.49" x2="1428.85" y2="880.49" xlink:href="#linear-gradient-2"/><linearGradient id="linear-gradient-55" x1="1232.48" y1="933.8" x2="1232.48" y2="913.8" xlink:href="#linear-gradient-2"/><linearGradient id="linear-gradient-56" x1="1374.51" y1="901.79" x2="1374.51" y2="881.79" xlink:href="#linear-gradient-2"/><linearGradient id="linear-gradient-57" x1="1235.07" y1="724.93" x2="1235.07" y2="704.93" xlink:href="#linear-gradient-2"/><linearGradient id="linear-gradient-58" x1="1323.74" y1="940.56" x2="1323.74" y2="920.56" xlink:href="#linear-gradient-2"/><linearGradient id="linear-gradient-59" x1="1287.12" y1="983" x2="1287.12" y2="963" xlink:href="#linear-gradient-2"/><linearGradient id="linear-gradient-60" x1="1287.12" y1="750.14" x2="1287.12" y2="730.14" xlink:href="#linear-gradient-2"/><linearGradient id="linear-gradient-61" x1="1191.34" y1="827.68" x2="1191.34" y2="807.68" xlink:href="#linear-gradient-2"/><linearGradient id="linear-gradient-62" x1="1085.71" y1="709.95" x2="1085.71" y2="689.95" xlink:href="#linear-gradient-2"/><linearGradient id="linear-gradient-63" x1="1079.17" y1="812.31" x2="1079.17" y2="792.31" xlink:href="#linear-gradient-2"/><linearGradient id="linear-gradient-64" x1="1193.41" y1="788.38" x2="1193.41" y2="776.75" xlink:href="#linear-gradient-2"/><linearGradient id="linear-gradient-65" x1="1106.16" y1="794.62" x2="1106.16" y2="782.99" xlink:href="#linear-gradient-2"/><linearGradient id="linear-gradient-66" x1="1177.87" y1="752.12" x2="1177.87" y2="740.49" xlink:href="#linear-gradient-2"/><linearGradient id="linear-gradient-67" x1="1238.77" y1="870.87" x2="1238.77" y2="859.24" xlink:href="#linear-gradient-2"/><linearGradient id="linear-gradient-68" x1="1191.34" y1="852.51" x2="1191.34" y2="840.88" xlink:href="#linear-gradient-2"/><linearGradient id="linear-gradient-69" x1="1232.33" y1="825.88" x2="1232.33" y2="807.89" xlink:href="#linear-gradient-2"/><linearGradient id="linear-gradient-70" x1="1251.25" y1="750.66" x2="1251.25" y2="732.67" xlink:href="#linear-gradient-2"/><linearGradient id="linear-gradient-71" x1="1385.95" y1="777.23" x2="1385.95" y2="759.25" xlink:href="#linear-gradient-2"/><linearGradient id="linear-gradient-72" x1="1407.93" y1="847.46" x2="1407.93" y2="835.83" xlink:href="#linear-gradient-2"/><linearGradient id="linear-gradient-73" x1="1481.83" y1="819.16" x2="1481.83" y2="807.51" gradientTransform="translate(89.61 -165.1) rotate(6.39)" xlink:href="#linear-gradient-2"/><linearGradient id="linear-gradient-74" x1="1025.34" y1="757.94" x2="1025.34" y2="746.31" xlink:href="#linear-gradient-2"/><linearGradient id="linear-gradient-75" x1="1199.84" y1="695.77" x2="1199.84" y2="684.13" xlink:href="#linear-gradient-2"/><linearGradient id="linear-gradient-76" x1="1338.79" y1="848.84" x2="1338.79" y2="837.21" xlink:href="#linear-gradient-2"/><linearGradient id="linear-gradient-77" x1="1285.12" y1="851.09" x2="1285.12" y2="839.46" xlink:href="#linear-gradient-2"/><linearGradient id="linear-gradient-78" x1="1328.47" y1="720.75" x2="1328.47" y2="709.12" xlink:href="#linear-gradient-2"/><linearGradient id="linear-gradient-79" x1="1138.46" y1="896.39" x2="1138.46" y2="884.76" xlink:href="#linear-gradient-2"/><linearGradient id="linear-gradient-80" x1="1165.01" y1="920.45" x2="1165.01" y2="908.82" xlink:href="#linear-gradient-2"/><linearGradient id="linear-gradient-81" x1="1207.65" y1="912.15" x2="1207.65" y2="900.52" xlink:href="#linear-gradient-2"/><linearGradient id="linear-gradient-82" x1="1283.24" y1="904.42" x2="1283.24" y2="892.79" xlink:href="#linear-gradient-2"/><linearGradient id="linear-gradient-83" x1="1458.72" y1="876.69" x2="1458.72" y2="865.06" xlink:href="#linear-gradient-2"/><linearGradient id="linear-gradient-84" x1="1394.51" y1="932.09" x2="1394.51" y2="920.45" xlink:href="#linear-gradient-2"/><linearGradient id="linear-gradient-85" x1="1210.63" y1="954.81" x2="1210.63" y2="943.18" xlink:href="#linear-gradient-2"/><linearGradient id="linear-gradient-86" x1="1328.47" y1="893.87" x2="1328.47" y2="882.24" xlink:href="#linear-gradient-2"/><linearGradient id="linear-gradient-87" x1="1338.79" y1="960.63" x2="1338.79" y2="949" xlink:href="#linear-gradient-2"/><linearGradient id="linear-gradient-88" x1="1283.24" y1="926.38" x2="1283.24" y2="914.74" xlink:href="#linear-gradient-2"/><linearGradient id="linear-gradient-89" x1="1272.25" y1="946.38" x2="1272.25" y2="934.74" xlink:href="#linear-gradient-2"/><linearGradient id="linear-gradient-90" x1="1269.62" y1="822.36" x2="1269.62" y2="804.38" xlink:href="#linear-gradient-2"/><linearGradient id="linear-gradient-91" x1="1210.63" y1="873.7" x2="1210.63" y2="862.07" xlink:href="#linear-gradient-2"/><linearGradient id="linear-gradient-92" x1="1142.67" y1="805.22" x2="1142.67" y2="793.59" xlink:href="#linear-gradient-2"/><linearGradient id="linear-gradient-93" x1="1150.66" y1="859.24" x2="1150.66" y2="847.61" xlink:href="#linear-gradient-2"/></defs><g class="cls-3"><g id="BG"><rect class="cls-4" width="2560" height="1440"/><circle class="cls-5" cx="1280" cy="720" r="720"/></g><g id="Planet"><circle id="Base" class="cls-6" cx="1280" cy="720" r="290"/><path class="cls-7" d="M1280,430c-160.16,0-290,129.84-290,290s129.84,290,290,290,290-129.84,290-290S1440.16,430,1280,430Zm194.45,484.45A275,275,0,1,1,1555,720,273.19,273.19,0,0,1,1474.45,914.45Z" transform="translate(0 0)"/><path class="cls-8" d="M1163,516.06" transform="translate(0 0)"/><circle class="cls-9" cx="848.14" cy="390" r="76"/><circle class="cls-10" cx="848.14" cy="390" r="64"/><circle class="cls-11" cx="848.14" cy="390" r="52"/><circle class="cls-12" cx="848.14" cy="390" r="40"/><circle class="cls-13" cx="1749.83" cy="1010" r="49"/><circle class="cls-14" cx="1749.83" cy="1010" r="37"/><circle class="cls-15" cx="1749.83" cy="1010" r="25"/><circle class="cls-16" cx="1712.83" cy="454" r="20"/><circle class="cls-17" cx="848.14" cy="985" r="20"/><circle class="cls-18" cx="1371.75" cy="400" r="10"/><circle class="cls-19" cx="1374.51" cy="400" r="10"/><circle class="cls-20" cx="1269.29" cy="526.06" r="10"/><circle class="cls-21" cx="1245.18" cy="1086.69" r="10"/><circle class="cls-22" cx="1059.17" cy="621.13" r="10"/><circle class="cls-23" cx="1361.75" cy="518.15" r="10"/><path class="cls-24" d="M770.82,708.62l-3.24-22.84a1.5,1.5,0,0,0-1.17-1.26l-22.56-4.86a1.5,1.5,0,0,1,.1-3l22.85-3.24a1.51,1.51,0,0,0,1.26-1.17l4.86-22.56a1.5,1.5,0,0,1,3,.11l3.25,22.84a1.5,1.5,0,0,0,1.17,1.26l22.56,4.86a1.5,1.5,0,0,1-.11,3L779.9,685a1.5,1.5,0,0,0-1.26,1.17l-4.86,22.56A1.5,1.5,0,0,1,770.82,708.62Z" transform="translate(0 0)"/><path class="cls-24" d="M1080,1139.35l-1.32-9.31a.62.62,0,0,0-.48-.51l-9.19-2a.61.61,0,0,1,0-1.2l9.31-1.33a.6.6,0,0,0,.51-.47l2-9.19a.61.61,0,0,1,1.21,0l1.32,9.31a.61.61,0,0,0,.48.51l9.18,2a.61.61,0,0,1,0,1.2l-9.3,1.33a.61.61,0,0,0-.52.47l-2,9.19A.61.61,0,0,1,1080,1139.35Z" transform="translate(0 0)"/><path class="cls-24" d="M1496.66,338l-1.32-9.3a.58.58,0,0,0-.48-.51l-9.18-2a.61.61,0,0,1,0-1.21l9.31-1.32a.63.63,0,0,0,.51-.48l2-9.19a.61.61,0,0,1,1.2,0l1.32,9.3a.61.61,0,0,0,.48.51l9.19,2a.62.62,0,0,1,0,1.21l-9.31,1.32a.62.62,0,0,0-.51.48l-2,9.19A.62.62,0,0,1,1496.66,338Z" transform="translate(0 0)"/><path class="cls-24" d="M1828.19,816.39l-3.25-22.85a1.49,1.49,0,0,0-1.17-1.26l-22.55-4.86a1.5,1.5,0,0,1,.1-2.95l22.85-3.25a1.49,1.49,0,0,0,1.25-1.17l4.86-22.56a1.5,1.5,0,0,1,3,.11l3.25,22.84a1.48,1.48,0,0,0,1.17,1.26l22.55,4.86a1.5,1.5,0,0,1-.1,3l-22.85,3.24a1.5,1.5,0,0,0-1.25,1.17l-4.86,22.56A1.5,1.5,0,0,1,1828.19,816.39Z" transform="translate(0 0)"/><path class="cls-24" d="M950.85,552.36a7.5,7.5,0,1,1-10.6-10.61c2.93-2.93,45.15-34.55,45.15-34.55S953.78,549.43,950.85,552.36Z" transform="translate(0 0)"/><path class="cls-24" d="M919.61,767.65a4,4,0,0,1-5.6-5.6c1.54-1.55,23.84-18.24,23.84-18.24S921.15,766.1,919.61,767.65Z" transform="translate(0 0)"/><path class="cls-24" d="M1855.66,663.94a4,4,0,0,1-5.6-5.6c1.55-1.55,23.84-18.24,23.84-18.24S1857.21,662.39,1855.66,663.94Z" transform="translate(0 0)"/><path class="cls-24" d="M1147.19,1070.34a4,4,0,1,1-5.6-5.6c1.54-1.55,23.84-18.24,23.84-18.24S1148.73,1068.79,1147.19,1070.34Z" transform="translate(0 0)"/><path class="cls-24" d="M1198.1,392.34a4,4,0,0,1-5.6-5.6c1.55-1.55,23.84-18.24,23.84-18.24S1199.65,390.79,1198.1,392.34Z" transform="translate(0 0)"/><path class="cls-24" d="M1715.16,697.75a7.5,7.5,0,1,1-10.61-10.6c2.93-2.93,45.16-34.55,45.16-34.55S1718.09,694.82,1715.16,697.75Z" transform="translate(0 0)"/><path class="cls-24" d="M1606.33,360a7.5,7.5,0,0,1-10.61-10.61c2.93-2.93,45.16-34.55,45.16-34.55S1609.26,357.05,1606.33,360Z" transform="translate(0 0)"/><path class="cls-24" d="M995.33,1118.17a7.5,7.5,0,1,1-10.6-10.61c2.92-2.93,45.15-34.55,45.15-34.55S998.26,1115.24,995.33,1118.17Z" transform="translate(0 0)"/><path class="cls-25" d="M1554.41,702c-49.52-21.83-106.23-33.47-158.75-30.54a258.39,258.39,0,0,0-29.87,3.35c-36.66,6.34-63.41,19.69-86.5,34.69-46.24,30-77.82,66.66-144.91,66.86-51.39.16-94.27-21.16-129.15-45.64h0q.12,3.24.32,6.46v.06q.19,3.21.47,6.41v.06q.27,3.21.61,6.39v0a273.08,273.08,0,0,0,18.69,74l.05.12c.7,1.71,1.42,3.4,2.15,5.1.14.31.27.62.4.93.67,1.52,1.36,3,2,4.55l.66,1.42q1,2.09,2,4.17l.84,1.73c.65,1.3,1.31,2.59,2,3.89l1,1.95c.65,1.23,1.31,2.44,2,3.65l1.17,2.13c.65,1.16,1.3,2.31,2,3.45l1.32,2.26c.65,1.1,1.31,2.19,2,3.28.48.79,1,1.58,1.46,2.36.65,1.05,1.31,2.09,2,3.13.52.82,1,1.63,1.59,2.44.65,1,1.31,2,2,3,.56.84,1.14,1.67,1.72,2.51s1.32,1.9,2,2.85,1.23,1.71,1.86,2.57,1.32,1.82,2,2.72,1.33,1.76,2,2.63l2,2.59c.71.9,1.44,1.8,2.16,2.69s1.31,1.64,2,2.46,1.55,1.85,2.33,2.77l1.94,2.29c.85,1,1.71,1.93,2.57,2.9.62.69,1.23,1.39,1.85,2.07,1,1.08,2,2.15,3,3.22.52.55,1,1.12,1.56,1.67q2.31,2.43,4.69,4.8A275,275,0,0,0,1555,720C1555,714,1554.79,708,1554.41,702Z" transform="translate(0 0)"/><path class="cls-26" d="M1085.55,914.45A275.22,275.22,0,0,0,1543.27,799.9c-49.53-22-105.34-32.21-155.24-25.1-103.4,14.73-126.17,96.08-220,92.47-69.14-2.66-119.89-49.28-156-85A273.13,273.13,0,0,0,1085.55,914.45Z" transform="translate(0 0)"/><path class="cls-27" d="M1025.39,824.28l-.05-.12Z" transform="translate(0 0)"/><polygon class="cls-28" points="1005.23 730.76 1005.23 730.76 1005.23 730.76 1005.23 730.76"/><path class="cls-29" d="M1005.55,737.28v0Z" transform="translate(0 0)"/><path class="cls-30" d="M1006,743.75v0Z" transform="translate(0 0)"/><path class="cls-31" d="M1006.65,750.17v0Z" transform="translate(0 0)"/><path class="cls-32" d="M1025.34,824.16a273.08,273.08,0,0,1-18.69-74A273.08,273.08,0,0,0,1025.34,824.16Z" transform="translate(0 0)"/><path class="cls-33" d="M1279.29,709.54c-44-9.32-95.88-53.07-142-55.84-52.17-3.12-98.91,24.91-132.23,63.58,0,.91,0,1.81,0,2.72,0,3.6.09,7.18.23,10.76,34.88,24.48,77.76,45.8,129.15,45.64C1201.47,776.2,1233.05,739.57,1279.29,709.54Z" transform="translate(0 0)"/><circle class="cls-34" cx="1527.17" cy="922.5" r="112.5"/><path class="cls-35" d="M1474.45,525.55A273.31,273.31,0,0,0,1350.28,454a279.76,279.76,0,0,1,24.17,21.52A275,275,0,0,1,1180,945a276.9,276.9,0,0,1-70.28-9,275,275,0,0,0,364.73-410.42Z" transform="translate(0 0)"/><path id="LowYellow-2" data-name="LowYellow" class="cls-36" d="M1280,995a275,275,0,1,1,194.45-80.55A273.19,273.19,0,0,1,1280,995Z" transform="translate(0 0)"/><g class="cls-37"><path class="cls-38" d="M1710.05,423.39c-38-54.29-261.37,36.52-498.88,202.83S811.93,971.36,850,1025.64s261.37-36.52,498.88-202.82S1748.07,477.68,1710.05,423.39Zm-372.69,383c-223.94,156.81-431.16,247.25-462.84,202s124.18-209,348.12-365.84,431.16-247.24,462.84-202S1561.3,649.63,1337.36,806.43Z" transform="translate(0 0)"/></g><g class="cls-37"><path class="cls-39" d="M1710.05,423.39c-38-54.29-261.37,36.52-498.88,202.83S811.93,971.36,850,1025.64s261.37-36.52,498.88-202.82S1748.07,477.68,1710.05,423.39Zm-372.69,383c-223.94,156.81-431.16,247.25-462.84,202s124.18-209,348.12-365.84,431.16-247.24,462.84-202S1561.3,649.63,1337.36,806.43Z" transform="translate(0 0)"/></g><g class="cls-40"><path class="cls-41" d="M1753.79,467.68c-38-54.29-261.37,36.52-498.88,202.83s-399.24,345.14-361.23,399.42,261.37-36.52,498.89-202.83S1791.8,522,1753.79,467.68Zm-372.7,383c-223.94,156.81-431.16,247.25-462.83,202s124.18-209,348.12-365.84,431.16-247.24,462.84-202S1605,693.92,1381.09,850.72Z" transform="translate(0 0)"/></g><path class="cls-42" d="M1163,516.06A233.77,233.77,0,0,1,1280,485q3.57,0,7.12.11" transform="translate(0 0)"/><path class="cls-42" d="M1131.14,538.13q4.56-3.75,9.29-7.25" transform="translate(0 0)"/><path class="cls-42" d="M1098.13,571.14q7.38-9,15.7-17.31t17.31-15.7" transform="translate(0 0)"/><circle id="Shine" class="cls-43" cx="1280" cy="720" r="290"/><g class="cls-44"><circle class="cls-45" cx="1163.02" cy="714.93" r="10"/><circle class="cls-46" cx="1130.43" cy="746.31" r="10"/><ellipse class="cls-47" cx="1367.18" cy="615.67" rx="14.18" ry="15.46"/><ellipse class="cls-48" cx="1033.08" cy="710" rx="14.18" ry="15.46"/><circle class="cls-49" cx="1235.07" cy="776.75" r="10"/><circle class="cls-50" cx="1109.72" cy="829.23" r="10"/><circle class="cls-51" cx="1342.36" cy="750.14" r="10"/><circle class="cls-52" cx="1371.75" cy="704.93" r="10"/><circle class="cls-53" cx="1414.67" cy="689.95" r="10"/><circle class="cls-54" cx="1498" cy="740.14" r="10"/><circle class="cls-55" cx="1523.46" cy="720" r="10"/><circle class="cls-56" cx="1442.28" cy="720" r="10"/><circle class="cls-57" cx="1384.51" cy="736.31" r="10"/><circle class="cls-58" cx="1434.67" cy="822.82" r="10"/><circle class="cls-59" cx="1307.12" cy="778.81" r="10"/><circle class="cls-60" cx="1374.51" cy="843.03" r="10"/><circle class="cls-61" cx="1079.17" cy="856.69" r="10"/><circle class="cls-62" cx="1114.63" cy="912.15" r="10"/><circle class="cls-63" cx="1184.31" cy="890.58" r="10"/><circle class="cls-64" cx="1304.2" cy="870.49" r="10"/><circle class="cls-65" cx="1498" cy="843.03" r="10"/><circle class="cls-66" cx="1428.85" cy="890.49" r="10"/><circle class="cls-67" cx="1232.48" cy="923.8" r="10"/><circle class="cls-68" cx="1374.51" cy="891.79" r="10"/><circle class="cls-69" cx="1235.07" cy="714.93" r="10"/><circle class="cls-70" cx="1323.74" cy="930.56" r="10"/><circle class="cls-71" cx="1287.12" cy="973" r="10"/><circle class="cls-72" cx="1287.12" cy="740.14" r="10"/><circle class="cls-73" cx="1191.34" cy="817.68" r="10"/><circle class="cls-74" cx="1085.71" cy="699.95" r="10"/><circle class="cls-75" cx="1079.17" cy="802.31" r="10"/><ellipse class="cls-76" cx="1193.41" cy="782.57" rx="6.43" ry="5.82"/><ellipse class="cls-77" cx="1106.16" cy="788.81" rx="6.43" ry="5.82"/><ellipse class="cls-78" cx="1177.87" cy="746.31" rx="6.43" ry="5.82"/><ellipse class="cls-79" cx="1238.77" cy="865.06" rx="6.43" ry="5.82"/><ellipse class="cls-80" cx="1191.34" cy="846.69" rx="6.43" ry="5.82"/><ellipse class="cls-81" cx="1232.33" cy="816.89" rx="9.12" ry="8.99"/><ellipse class="cls-82" cx="1251.25" cy="741.67" rx="9.12" ry="8.99"/><ellipse class="cls-83" cx="1385.95" cy="768.24" rx="9.12" ry="8.99"/><ellipse class="cls-84" cx="1407.93" cy="841.65" rx="6.43" ry="5.82"/><ellipse class="cls-85" cx="1471.7" cy="808.12" rx="6.43" ry="5.82"/><ellipse class="cls-86" cx="1025.34" cy="752.12" rx="6.43" ry="5.82"/><ellipse class="cls-87" cx="1199.84" cy="689.95" rx="6.43" ry="5.82"/><ellipse class="cls-88" cx="1338.79" cy="843.03" rx="6.43" ry="5.82"/><ellipse class="cls-89" cx="1285.12" cy="845.27" rx="6.43" ry="5.82"/><ellipse class="cls-90" cx="1328.47" cy="714.93" rx="6.43" ry="5.82"/><ellipse class="cls-91" cx="1138.46" cy="890.58" rx="6.43" ry="5.82"/><ellipse class="cls-92" cx="1165.01" cy="914.64" rx="6.43" ry="5.82"/><ellipse class="cls-93" cx="1207.65" cy="906.33" rx="6.43" ry="5.82"/><ellipse class="cls-94" cx="1283.24" cy="898.6" rx="6.43" ry="5.82"/><ellipse class="cls-95" cx="1458.72" cy="870.87" rx="6.43" ry="5.82"/><ellipse class="cls-96" cx="1394.51" cy="926.27" rx="6.43" ry="5.82"/><ellipse class="cls-97" cx="1210.63" cy="949" rx="6.43" ry="5.82"/><ellipse class="cls-98" cx="1328.47" cy="888.06" rx="6.43" ry="5.82"/><ellipse class="cls-99" cx="1338.79" cy="954.81" rx="6.43" ry="5.82"/><ellipse class="cls-100" cx="1283.24" cy="920.56" rx="6.43" ry="5.82"/><ellipse class="cls-101" cx="1272.25" cy="940.56" rx="6.43" ry="5.82"/><ellipse class="cls-102" cx="1269.62" cy="813.37" rx="9.12" ry="8.99"/><ellipse class="cls-103" cx="1210.63" cy="867.88" rx="6.43" ry="5.82"/><ellipse class="cls-104" cx="1142.67" cy="799.41" rx="6.43" ry="5.82"/><ellipse class="cls-105" cx="1150.66" cy="853.42" rx="6.43" ry="5.82"/></g></g></g></svg>