<svg id="Layer_1" data-name="Layer 1" xmlns="http://www.w3.org/2000/svg" xmlns:xlink="http://www.w3.org/1999/xlink" viewBox="0 0 888.91 865.65"><defs><style>.cls-1,.cls-14,.cls-15,.cls-20{fill:none;}.cls-1,.cls-11,.cls-12,.cls-2,.cls-3,.cls-4,.cls-5,.cls-7,.cls-8{stroke:#231f20;}.cls-1,.cls-10,.cls-11,.cls-12,.cls-14,.cls-15,.cls-16,.cls-17,.cls-18,.cls-19,.cls-2,.cls-20,.cls-21,.cls-3,.cls-4,.cls-5,.cls-7,.cls-8,.cls-9{stroke-miterlimit:10;}.cls-1,.cls-10,.cls-11,.cls-12,.cls-14,.cls-17,.cls-18,.cls-2,.cls-3,.cls-4,.cls-5,.cls-7,.cls-8,.cls-9{stroke-width:4px;}.cls-2{fill:#f3b779;}.cls-3{fill:#f7e3c0;}.cls-4{fill:#8e6b47;}.cls-5{fill:#ffd59f;}.cls-6{clip-path:url(#clip-path);}.cls-8{fill:#97cd80;}.cls-12,.cls-9{fill:#f15f5a;}.cls-15,.cls-16,.cls-19,.cls-20,.cls-21,.cls-9{stroke:#333;}.cls-10,.cls-11,.cls-17,.cls-18,.cls-21{fill:#fff;}.cls-10,.cls-14,.cls-17,.cls-18{stroke:#fff;}.cls-10,.cls-13{opacity:0.2;}.cls-11{opacity:0.52;}.cls-13,.cls-16,.cls-19{fill:#333;}.cls-14,.cls-15,.cls-16,.cls-19,.cls-20,.cls-21{stroke-linecap:round;}.cls-18{opacity:0.15;}.cls-19,.cls-20,.cls-21{stroke-width:2px;}</style><clipPath id="clip-path" transform="translate(-344.88 -77.84)"><path class="cls-1" d="M672.26,631.15H542.87a10.82,10.82,0,0,1-10.38-8L474.41,413H740L681.7,623.84A9.85,9.85,0,0,1,672.26,631.15Z"/></clipPath></defs><path class="cls-2" d="M672.26,631.15H542.87a10.82,10.82,0,0,1-10.38-8L474.41,413H740L681.7,623.84A9.85,9.85,0,0,1,672.26,631.15Z" transform="translate(-344.88 -77.84)"/><path class="cls-3" d="M661.59,254.29v7a10.08,10.08,0,0,1-10.09,10.08H519.39a10.08,10.08,0,0,1-10.08-10.08v-7a10.08,10.08,0,0,1,10.08-10.08H522a68.48,68.48,0,1,1,127.54,0h1.93A10.08,10.08,0,0,1,661.59,254.29Z" transform="translate(-344.88 -77.84)"/><rect class="cls-4" x="472.79" y="193.64" width="313.57" height="55.23" transform="translate(-276.98 503.73) rotate(-52.04)"/><polygon class="cls-4" points="393.14 29.16 321.72 51.05 339.94 27.69 376.78 16.4 393.14 29.16"/><polygon class="cls-4" points="394.77 47.2 376.55 70.56 284.5 98.76 302.71 75.42 394.77 47.2"/><polygon class="cls-4" points="354.17 99.25 335.95 122.6 248.99 149.25 248.6 144.79 262.12 127.46 354.17 99.25"/><polygon class="cls-4" points="316.02 148.15 297.81 171.5 210.84 198.16 210.45 193.7 223.97 176.36 316.02 148.15"/><polygon class="cls-4" points="280.57 193.6 262.35 216.96 175.38 243.61 174.99 239.15 188.51 221.82 280.57 193.6"/><polygon class="cls-4" points="244.44 239.92 226.22 263.27 195.51 272.68 179.15 259.92 244.44 239.92"/><rect class="cls-5" x="108.66" y="264.04" width="308.21" height="71.07" rx="14.22"/><g class="cls-6"><path class="cls-7" d="M346.12,437.24,790,86.12" transform="translate(-344.88 -77.84)"/><path class="cls-7" d="M346.12,487.16,790,136" transform="translate(-344.88 -77.84)"/><path class="cls-7" d="M353.42,538.25,797.28,187.12" transform="translate(-344.88 -77.84)"/><path class="cls-7" d="M353.54,599.85,804.7,243" transform="translate(-344.88 -77.84)"/><path class="cls-7" d="M363.43,656.86,814.59,300" transform="translate(-344.88 -77.84)"/><path class="cls-7" d="M375.65,713.88,826.81,357" transform="translate(-344.88 -77.84)"/><path class="cls-7" d="M382.65,770.89,833.81,414" transform="translate(-344.88 -77.84)"/><path class="cls-7" d="M389.65,827.9,840.82,471" transform="translate(-344.88 -77.84)"/><path class="cls-7" d="M396.66,884.91,847.82,528" transform="translate(-344.88 -77.84)"/><path class="cls-7" d="M403.66,941.93,854.82,585" transform="translate(-344.88 -77.84)"/><path class="cls-7" d="M880.82,446.14,437,95" transform="translate(-344.88 -77.84)"/><path class="cls-7" d="M854.82,487.16,411,136" transform="translate(-344.88 -77.84)"/><path class="cls-7" d="M847.52,538.25,403.66,187.12" transform="translate(-344.88 -77.84)"/><path class="cls-7" d="M847.4,599.85,396.24,243" transform="translate(-344.88 -77.84)"/><path class="cls-7" d="M837.51,656.86,386.35,300" transform="translate(-344.88 -77.84)"/><path class="cls-7" d="M825.29,713.88,374.13,357" transform="translate(-344.88 -77.84)"/><path class="cls-7" d="M818.29,770.89,367.13,414" transform="translate(-344.88 -77.84)"/><path class="cls-7" d="M811.29,827.9,360.13,471" transform="translate(-344.88 -77.84)"/><path class="cls-7" d="M804.28,884.91,353.12,528" transform="translate(-344.88 -77.84)"/><path class="cls-7" d="M797.28,941.93,346.12,585" transform="translate(-344.88 -77.84)"/></g><path class="cls-1" d="M672.26,631.15H542.87a10.82,10.82,0,0,1-10.38-8L474.41,413H740L681.7,623.84A9.85,9.85,0,0,1,672.26,631.15Z" transform="translate(-344.88 -77.84)"/><path class="cls-8" d="M620.51,324.87v6.95a10.08,10.08,0,0,1-10.08,10.08H512.56a12.45,12.45,0,0,1,.13,1.84v37.35a13.56,13.56,0,0,1-27.12,0V343.74a12.45,12.45,0,0,1,.13-1.84h-7.39a10.09,10.09,0,0,1-10.08-10.08v-6.95a10.09,10.09,0,0,1,10.08-10.09H481a68.49,68.49,0,1,1,127.53,0h1.94A10.08,10.08,0,0,1,620.51,324.87Z" transform="translate(-344.88 -77.84)"/><path class="cls-9" d="M744.43,327.63v6.95a10.08,10.08,0,0,1-10.08,10.08h-.28v21.18a13.56,13.56,0,0,1-27.11,0V344.66H688.11v69.73a14.95,14.95,0,0,1-29.9,0V345c0-.11,0-.21,0-.32h-56a10.08,10.08,0,0,1-10.08-10.08v-6.95a10.09,10.09,0,0,1,10.08-10.09h2.65a68.49,68.49,0,1,1,127.53,0h1.94A10.08,10.08,0,0,1,744.43,327.63Z" transform="translate(-344.88 -77.84)"/><path class="cls-10" d="M615.12,286.64a74.83,74.83,0,0,0,3.7,31.27h-2.24c-4.74,0-8.57,4.39-8.57,9.8v6.75c0,5.41,3.83,9.79,8.57,9.79H601.75c-4.73,0-8.57-4.38-8.57-9.79v-6.75c0-5.41,3.84-9.8,8.57-9.8H604a74.83,74.83,0,0,1-3.71-31.27c3.38-36.53,32-63,64-59.17.43,0,.86.1,1.3.17C639.42,231.46,618,255.37,615.12,286.64Z" transform="translate(-344.88 -77.84)"/><path class="cls-11" d="M607.29,286.57a74.71,74.71,0,0,0,3.7,31.27h-2.25c-4.73,0-8.56,4.39-8.56,9.8v6.74c0,5.41,3.83,9.79,8.56,9.79h-7c-4.73,0-8.57-4.38-8.57-9.79v-6.74c0-5.41,3.84-9.8,8.57-9.8H604a74.87,74.87,0,0,1-3.7-31.27c3-32.65,26.2-57.28,53.92-59.4.76.05,1.51.13,2.27.22l1.3.17C631.59,231.38,610.17,255.29,607.29,286.57Z" transform="translate(-344.88 -77.84)"/><path class="cls-8" d="M546.34,631.23l-55.75-.11c2.08-14.39,13.77-25.4,27.86-25.4S544.3,616.79,546.34,631.23Z" transform="translate(-344.88 -77.84)"/><path class="cls-12" d="M737.63,631.63l-25.22,0-34.11-.07c1.08-14.47,11.29-26.19,24.49-28.65a27.62,27.62,0,0,1,5.17-.48C723.62,602.38,736.46,615.26,737.63,631.63Z" transform="translate(-344.88 -77.84)"/><path class="cls-12" d="M712,631.1v.48l-34.11-.07h0l-48.62-.1v-.31c0-24.33,18.52-44.06,41.37-44.06a40.32,40.32,0,0,1,31.75,15.82A45.56,45.56,0,0,1,712,631.1Z" transform="translate(-344.88 -77.84)"/><path class="cls-1" d="M546.8,631.23l82.87.18" transform="translate(-344.88 -77.84)"/><path class="cls-1" d="M737.63,631.63l18.44,0" transform="translate(-344.88 -77.84)"/><path class="cls-1" d="M490.59,631.12l-10.83,0" transform="translate(-344.88 -77.84)"/><path class="cls-13" d="M744.43,327.63v6.95a10.07,10.07,0,0,1-10.08,10.08h-.27v21.18a13.56,13.56,0,0,1-27.12,0V344.66H688.11c0,.11,0,.21,0,.32v69.41a15,15,0,1,1-29.9,0V344.66h-56a10.08,10.08,0,0,1-10.09-10.08v-6.95a10.09,10.09,0,0,1,10.09-10.09h2.64a67.56,67.56,0,0,1-4.74-24.82c33.59,5.93,99.82,14.69,100.16-8.38.66-44.46,20-29.61,32.9-14.75a68.77,68.77,0,0,1-.78,48h1.93A10.08,10.08,0,0,1,744.43,327.63Z" transform="translate(-344.88 -77.84)"/><path class="cls-14" d="M683.06,235s11.9-.43,21.28,7.3a26.43,26.43,0,0,1,2.6,2.65c1.64,1.88,3.15,3.86,3.15,3.86,3.2,5,5.36,11.88,5.36,21.22" transform="translate(-344.88 -77.84)"/><path class="cls-15" d="M630.94,250.92l10.21-10.68" transform="translate(-344.88 -77.84)"/><path class="cls-15" d="M637.38,239.06l7.55,9.92" transform="translate(-344.88 -77.84)"/><path class="cls-16" d="M636,253.63l10.22-10.69" transform="translate(-344.88 -77.84)"/><path class="cls-16" d="M632.2,244l8.95,11.77" transform="translate(-344.88 -77.84)"/><circle class="cls-10" cx="279.19" cy="207.83" r="3.56"/><circle class="cls-10" cx="277.93" cy="230.11" r="8.13"/><circle class="cls-10" cx="294.06" cy="215.57" r="5.8"/><polygon class="cls-17" points="795.33 273.97 746.27 324.15 735.45 313.57 774.16 273.97 795.33 273.97"/><path class="cls-18" d="M725.11,259.38l-74,80.19H631.49l85.15-92.32c.61.69,1.2,1.39,1.78,2.11A67.23,67.23,0,0,1,725.11,259.38Z" transform="translate(-344.88 -77.84)"/><path class="cls-17" d="M1231,144l-30.11,30.79-2,2.08c-.72-.52-1.45-1-2.19-1.49a67.77,67.77,0,0,0-25.14-9.92l1.06-1.08,38.72-39.61Z" transform="translate(-344.88 -77.84)"/><path class="cls-18" d="M710.59,239.77l-99,107.09a10.06,10.06,0,0,1-6.64-9.61V330.3a10.09,10.09,0,0,1,6.32-9.5,8.7,8.7,0,0,1,1.57-.43,8.27,8.27,0,0,1,1.66-.16H617a70.43,70.43,0,0,1-3.73-14.53l71.5-77.32a62.11,62.11,0,0,1,23.78,9.92C709.21,238.76,709.9,239.25,710.59,239.77Z" transform="translate(-344.88 -77.84)"/><path class="cls-19" d="M681.76,361.86l-.3,11.78" transform="translate(-344.88 -77.84)"/><path class="cls-19" d="M681.46,378.53l-.31,22.32" transform="translate(-344.88 -77.84)"/><path class="cls-19" d="M651.6,350.88l-.31,18.24" transform="translate(-344.88 -77.84)"/><path class="cls-19" d="M651.75,373.08l-.31,6.36" transform="translate(-344.88 -77.84)"/><path class="cls-19" d="M644.74,351.15l-.31,10.71" transform="translate(-344.88 -77.84)"/><path class="cls-20" d="M728,370.65c-3.83,3.76-12.53-.49-12.53-.49" transform="translate(-344.88 -77.84)"/><path class="cls-20" d="M728.69,357.83,729,369" transform="translate(-344.88 -77.84)"/><path class="cls-20" d="M728.85,344.25l.3,8.29" transform="translate(-344.88 -77.84)"/><path class="cls-21" d="M641.15,339.57h8.51" transform="translate(-344.88 -77.84)"/><path class="cls-21" d="M621.15,339.57h8.51" transform="translate(-344.88 -77.84)"/><ellipse class="cls-18" cx="644.43" cy="258.88" rx="11.35" ry="6.38" transform="translate(-298.21 534.58) rotate(-52.49)"/></svg>